<svg version="1.1" xmlns="http://www.w3.org/2000/svg" style="display:none;">
    <symbol id="view" viewBox="0 0 24 24">                                <path        stroke="currentColor"        d="M14 20.4v-5.8c0-.3.3-.6.6-.6h5.8c.3 0 .6.3.6.6v5.8c0 .3-.3.6-.6.6h-5.8a.6.6 0 01-.6-.6zM3 20.4v-5.8c0-.3.3-.6.6-.6h5.8c.3 0 .6.3.6.6v5.8c0 .3-.3.6-.6.6H3.6a.6.6 0 01-.6-.6zM14 9.4V3.6c0-.3.3-.6.6-.6h5.8c.3 0 .6.3.6.6v5.8c0 .3-.3.6-.6.6h-5.8a.6.6 0 01-.6-.6zM3 9.4V3.6c0-.3.3-.6.6-.6h5.8c.3 0 .6.3.6.6v5.8c0 .3-.3.6-.6.6H3.6a.6.6 0 01-.6-.6z"></path></symbol>
    <symbol id="arrow-r" viewBox="0 0 320 512"><path fill="currentColor" d="M96 480c-8.188 0-16.38-3.125-22.62-9.375-12.5-12.5-12.5-32.75 0-45.25L242.8 256 73.38 86.63c-12.5-12.5-12.5-32.75 0-45.25s32.75-12.5 45.25 0l192 192c12.5 12.5 12.5 32.75 0 45.25l-192 192C112.4 476.9 104.2 480 96 480z"/></symbol>
    <symbol id="dot" viewBox="0 0 512 512"><path fill="currentColor" d="M512 256c0 141.4-114.6 256-256 256S0 397.4 0 256 114.6 0 256 0s256 114.6 256 256z"/></symbol>
    <symbol id="duihao" viewBox="0 0 448 512"><path fill="currentColor" d="M438.6 105.4c12.5 12.5 12.5 32.7 0 45.2l-256 256c-12.5 12.5-32.7 12.5-45.2 0L9.372 278.6c-12.496-12.5-12.496-32.7 0-45.2 12.498-12.5 32.758-12.5 45.258 0L159.1 338.7l234.3-233.3c12.5-12.52 32.7-12.52 45.2 0z"/></symbol>
    <symbol id="sortby" viewBox="0 0 416 330"><path stroke="currentColor" fill="currentColor" d="M124 1h8l6 2 4 3 106 107 4 8v9l-2 5-5 6-8 4h-9l-8-4-71-71-1 144-1 1v81q-2 8-8 12l-6 3h-11q-8-3-12-8l-2-3-1-3v-5l-1-1V133l1-1V70l-69 69-3 4-8 4H17l-10-5v-1l-5-7-1-8q2-1 1-5l3-5L116 5l8-4z"/><path fill="var(--clrPrm)" stroke="var(--clrPrm)" d="M284 17h12q7 3 11 9l3 6 1 226 70-71 9-5h12l5 2 7 8 2 4v14l-3 6-110 110-5 3q-4-1-4 1h-9l-7-3-4-3-108-107-4-8v-11l3-7 6-6 6-3h13l6 3 72 72V33l2-5 6-7 8-4z"/></symbol>
    <symbol id="refresh" viewBox="0 0 64 64"><path stroke="currentColor" fill="currentColor" d="M52.36 2.42c1.13-.78 3.1.11 3.01 1.58.16 4.63.24 9.29-.06 13.92-1.33 1.78-3.92 1.84-5.83 2.7-2.86.88-5.63 2.05-8.55 2.73-2.24.82-3.57-2.75-1.56-3.76 3.12-1.45 6.55-2.08 9.7-3.46-4.53-5.47-12.03-8.07-19.02-7.52-7.45.53-14.44 4.97-18.24 11.38-3.59 5.9-4.28 13.42-1.95 19.9 2.06 5.83 6.52 10.78 12.13 13.38 6.52 3.08 14.48 2.94 20.86-.43 6.41-3.32 11.14-9.75 12.27-16.9.69-3.14-.13-6.37.28-9.52 1.08-1 2.2-1.08 3.38-.25.99 1.78.87 3.87.92 5.83.09 8.42-4.09 16.75-10.83 21.79-5.85 4.49-13.59 6.43-20.87 5.25-9.43-1.37-17.82-8.13-21.22-17.02-3.85-9.35-1.81-20.75 4.95-28.25C18.12 6.4 28.59 2.98 38.11 5.12c4.88.92 9.11 3.7 13.03 6.61.17-2.8-.15-5.63.26-8.41l.96-.9z"/></symbol>
    <symbol id="new" viewBox="0 0 500 500"><path fill="var(--clrPrm)" stroke="var(--clrPrm)" d="M245 151h11q4 2 7 6l3 6v71h72q6 2 9 7l2 4v11l-5 7-6 3h-72v72q-2 6-6 9l-4 2h-11l-8-5-3-6v-72h-71q-7-2-10-6l-2-4v-11q2-5 6-8l6-3h71v-71q2-7 7-10l4-2z"/><path stroke="currentColor" fill="currentColor" d="M249 26q3-1 4 1h19l1 1h7l1 1h6l6 2h5l1 1 11 2 4 2h3l6 3 13 4 21 10 21 13 17 13 17 17 17 20 11 16 5 10 2 2 12 26 6 18v3l2 4 1 8 1 1v4l1 1v4l1 1 1 14 1 1v19q2 0 1 4l-1 1v18l-1 1v8l-1 1v6l-1 1-2 14-1 1v3l-2 4v3l-6 18-5 10v2l-7 14-13 21-13 17-16 17-20 17-16 11-10 5-2 2-26 12-21 7h-3l-5 2h-4l-1 1h-4l-1 1h-4l-1 1-14 1-1 1h-19q-1 2-4 1l-1-1h-19l-1-1h-7l-1-1h-6l-1-1-14-2-1-1-10-2-18-6-3-2h-2l-21-10-21-13-17-13-17-15-18-21-11-16-5-10-2-2-10-21-5-16-2-3-1-7-3-8-2-14-1-1-1-14-1-1v-19q-2-1-1-4l1-1v-19l1-1v-7l1-1v-6l1-1 2-14 4-12v-3l2-3 3-11 5-10v-2l7-14 13-21 13-17 16-17 21-18 16-11 10-5 2-2 21-10 16-5 3-2 7-1 8-3h4l1-1h4l6-2h6l1-1h7l1-1h19l1-1zm-13 31l-1 1h-9l-1 1h-6l-1 1h-4l-1 1h-4l-9 3h-3l-15 5-3 2h-2l-7 4h-2q-31 15-53 37-25 24-41 58v2l-5 10-5 15-2 11-1 1v4l-1 1v4l-1 1v6l-1 1v9l-1 1v29l1 1v9l1 1v6l1 1v4l1 1v4l3 9v3l5 15 5 10v2l10 19q12 19 28 36 23 24 56 39h2l7 4h2l3 2 15 5 11 2 1 1h4l1 1 12 1 1 1h8l1 1h29l1-1 15-1 1-1h5l1-1h4l9-3h3l15-5 24-11 10-6q17-11 32-25l13-14 10-13 12-19 5-10v-2l4-7v-2l2-3 5-15 2-11 1-1v-4l1-1 1-12 1-1v-9l1-1v-28l-1-1-1-15-1-1v-5l-1-1v-4l-3-9v-3l-5-15-11-24-6-10q-11-19-26-33-17-18-38-31l-19-10h-2l-10-5-15-5-11-2-1-1h-4l-1-1h-4l-1-1h-6l-1-1h-9l-1-1h-29z"/></symbol>
    <symbol id="display" viewBox="0 0 500 500"><path stroke="currentColor" fill="currentColor" d="M243.5 37h210l18 6L485 53.5l6 8 5 10 3 9v10l1 1v255l-1 1v10l-3 9-5 10-8.5 10.5-8 6-10 5-6 1-1 1h-4l-1 1H345v62h46.5q6.8 2.3 10.5 7.5l3 8v5l-3 7-4.5 4.5-6 3h-258l-5-2-5.5-5.5-3-7v-7l5.5-9.5 8-4H180v-62H71.5l-1-1-8-1-9-4-9-6-5.5-5.5-10-16-3-9v-6l-1-1v-92l.5-.5 4 4 12 8 18.5 9.5v70l3 7 5.5 5.5 5 2h378q6.8-2.3 10.5-7.5l3-8v-261l-3-8-5.5-5.5-5-2h-188l-1.5-1.5-6-14-12-18-.5-2.5zM214 401v62h96v-62h-96z"/><path fill="var(--clrPrm)" stroke="var(--clrPrm)" d="M105.5 0h28l1 1h6.5q-.8 2.6 1 3.5v4l1 1v3l1 1v3l1 1v3l2 6 7 12 6.5 6.5 7 5 12 5q4-1 5 1h12l1-1h4l4-2h3l7-3h3L230 66.5l6 12 3 10-15 15-7 12-1 6-1 1v4l-1 1v13l1 1v4l3 9 4 7 17 18-8 20-12.5 18.5-9-3h-3l-4-2h-3l-1-1h-16l-14 5-12.5 9.5-5 7-5 10v3l-3 9-1 7-1 1v3.5h-8.5l-1 1h-24l-1-1H99l-1-2.5v-3l-1-1v-3l-1-1-1-8-3-9-6-10-8.5-8.5-13-7h-3l-5-2h-16l-4 2h-3l-12 4L11 203.5l-7-14-1-5-2-3v-3l12-11 7-10 3-7 1-6 1-1v-4l1-1v-9l-1-1-1-9-5-11q-7.4-11.6-18-20v-2l10-22 9-13V50l7.5 1 7 3 8 1 1 1h11q1.3-2.3 6-1l10-5h2L85 39.5l7-11 3-9v-3l1-1v-4l2-5v-4L99.5 1q4.8 1.3 6-1zm8.5 98l-6 2-9 5-9 10-5 12v14q2 0 1 4l4 9 3 4 5 4 8 5 6 2h5l1 1 14-2 8-4 4-4h1v-1q5-5 8-12l1-7 1-1v-9q-2-1-1-5l-2-6-6-9q-5-7-13-10l-6-2h-13z"/></symbol>
    <symbol id="theme" viewBox="0 0 500 500"><path stroke="currentColor" fill="currentColor" d="M449.95 39.46c3.99-.83 8.16-1.78 12.22-.8 5.49 1.38 11.18 3.89 14.17 8.98 4.85 7.83 3.75 17.6 1.21 26.02-6.16 20.19-17.58 38.2-29.21 55.62-24.35 35.07-51.89 67.84-80.51 99.44-3.08 4.23-7.21 7.53-10.43 11.64-3.64 4.69-8.34 8.4-12.08 12.99-4.88 6.06-10.81 11.15-16 16.92-2.33 3-4.95 5.75-7.66 8.4l-44.02 44.03c-8.61 8.78-18.19 16.49-27.16 24.88-12.11 9.74-24.12 20.08-38.52 26.3-2.15 1.28-4.63.58-6.94.4.05-3.33.3-6.75-.71-9.98l-.53-2.66-1.03-3.1c-1.1-2.26-2.19-4.53-3.46-6.7 1.1-1.95 2.21-4.04 4.25-5.17 13.79-8.14 25.98-18.66 37.86-29.32 6.1-6.6 13.33-11.98 19.52-18.48 8.16-7.52 15.84-15.52 23.63-23.43 10.14-10.81 21.16-20.79 30.83-32.05 10.28-10.1 19.67-21.02 29.49-31.54 26.94-30.26 53.17-61.26 76.78-94.21 9.24-13.65 18.54-27.33 25.97-42.06.92-2.06 1.64-4.21 2.39-6.34-10.03 2.88-18.56 9.14-27.41 14.43-39.57 25.13-75.24 55.75-110.49 86.49-5.51 5.49-11.55 10.4-17.09 15.85-5.25 4.07-9.53 9.2-14.76 13.29-7.87 7.11-14.84 15.18-23.05 21.92l-37.53 37.42c-14.75 16.31-30.44 31.96-42.75 50.31-2.07 3.03-3.51 6.52-6.08 9.19-1.73.61-3.57.73-5.37.94-.21-.07-.63-.23-.84-.31l-4.25-1.56-1.75-.47-3.97-1.17c-3.67-.79-7.61-1.12-11.2.17-.1-4.72 2.12-9 4.1-13.14 9.86-18.08 23.91-33.32 37.35-48.73 5.05-5.24 10.48-10.13 15.01-15.85l28-28.13c9.93-8.4 18.6-18.15 28.14-26.96 5.48-4.09 9.69-9.58 15.09-13.75 4.6-3.76 8.31-8.48 13.09-12.03 39.79-35.51 80.45-70.53 125.54-99.3 12.57-7.67 25.63-15.21 40.16-18.39z"/><path fill="var(--clrPrm)" stroke="var(--clrPrm)" d="M143.47 315.74c3.59-1.29 7.53-.96 11.2-.17l3.97 1.17 1.75.47 4.25 1.56.84.31c3.41 2.71 7.71 4.54 9.98 8.45 4.85 3.76 8.96 8.4 13.18 12.84a6.586 6.586 0 0 0 2.98 2.99c2.91 2.47 5.74 5.14 7.67 8.48 1.27 2.17 2.36 4.44 3.46 6.7l1.03 3.1.53 2.66c1.01 3.23.76 6.65.71 9.98l-.94 2.26c-.35 2.29.64 5.01-.94 6.97-.26 1.66.25 3.61-.97 5-.21 1.34-.07 2.81-.89 3.99-.25 1.02-.58 2.02-1 3-.33 1.77-1.17 3.37-2.03 4.94-.42 2.22-1.55 4.18-2.56 6.17-.69 1.32-1.34 2.67-1.95 4.04-2.11 3.81-4.94 7.17-7.02 11-2.89 2.54-4.53 6.13-7.48 8.61-3.03 2.59-5.29 6.17-8.89 8.02l-3.73 3.44c-2.52 1.34-4.77 3.1-7.17 4.62l-2.08.86c-1.96 1.13-3.84 2.4-5.75 3.61-1.38.54-2.75 1.08-4.19 1.42l-1.99 1.06c-1.69.6-3.38 1.18-4.99 1.95-.96.42-1.94.77-2.95 1.05a45.67 45.67 0 0 1-2.99 1.01c-1.51.93-3.32.65-4.99.82-1.1 1.01-2.66.81-4.01 1.08-1.77 1.24-3.99.67-5.99.89-3.91 2.05-8.73.31-13.01.99-1.37 1.27-3.71 1.42-5.03-.01-3.92-.66-8.49 1.08-11.99-.99-1.99-.29-4.37.53-6-.96-1.67-.25-3.62.28-4.99-.95-1.35-.22-2.84-.06-4-.91-1.03-.24-2.03-.56-3-.98-1.03-.25-2.03-.58-3-1-1.02-.26-2.02-.58-2.99-.98-1.77-.36-3.37-1.19-4.95-2.03-2.51-.51-4.72-1.84-6.96-3.01l-2.05-.93c-1.63-1.04-3.21-2.17-4.94-3.05-3.56-1.98-6.68-4.65-10.27-6.57-1.55-1.46-2.93-3.26-5.01-3.99-3.6-3.72-7.71-7.02-10.75-11.23l-.86-3c-1.06-1.8-1.18-4.27.08-6 .18-1.34.3-2.69.73-3.97 1.59-2.35 3.52-4.54 6.04-5.88 2.93-2.11 6.52-1.64 9.91-1.71 2.2-1.85 5.39-.55 8-1.01 1.4-1.19 3.37-.8 4.96-1.57 1.04-.57 2.1-1.12 3.17-1.63 9.87-4.03 15.86-13.35 21.11-22.11.97-1.69 2.09-3.27 3.03-4.97.99-2.53 2.72-4.65 3.99-7.03.97-1.68 2.07-3.28 2.98-5 .97-1.68 2.08-3.28 2.99-4.99 2.74-4.76 6.41-8.89 9.58-13.35 5.16-5.16 10-10.8 16.32-14.57 1.74-.87 3.32-2.02 4.98-3.03 1.61-.77 3.23-1.56 4.79-2.44 1.35-.6 2.71-1.15 4.13-1.56.99-.36 1.99-.69 3-1 1.59-.74 3.47-.52 4.99-1.46 1.35-.29 2.92-.03 4.01-1.08 1.65-.12 3.31-.21 4.96-.39m3.05 28.32c-1.3 1.4-3.34.78-5 1.07-.95.53-1.96.92-3.02 1.18a27.46 27.46 0 0 1-3.05.93l-4.08 1.98c-1.71.96-3.32 2.1-5.03 3.05-7.2 6.34-13.32 13.77-18.12 22.09l-.86 2.07c-1.06 1.63-2.2 3.22-3.12 4.93-.95 2.55-2.74 4.64-3.97 7.04-.98 1.68-2.13 3.26-3.01 5.01-1.37 2.48-3.18 4.7-4.54 7.19-1.43 1.58-3.18 2.98-4.01 5.01-4.37 4.27-8.24 9.29-13.33 12.69-1.25 1.1-2.51 2.21-3.94 3.08-1.47.65-2.93 1.32-4.43 1.91l-.02.47 2.44.89 1.99 1.23 2 .29c.97.52 1.99.88 3.08 1.08l2.05 1.14c1.63.58 3.44.55 4.96 1.43l1.93.35c1.74 1.51 4.41.1 6.07 1.75 3.59.66 7.87-1.1 11.01 1.04 1.67-.11 3.71.59 4.99-.89 3.33-.14 6.65 0 9.98-.14 1.59-1.73 4.34-.18 6.01-1.77l1.99-.32c1.48-1.01 3.39-.71 4.94-1.56 1.62-.76 3.3-1.35 4.97-1.97l5.99-3.03 2.04-.93c9.83-6.22 18.74-14.41 24.29-24.75.55-1.1 1.29-2.08 2.04-3.03.25-1.02.54-2.02.86-3.01l1.15-1.97c.22-1.06.52-2.09.92-3.09.29-1.02.62-2.01 1-2.99.2-1.1.61-2.1 1.21-3.02l.2-3.98c1.8-2.28.57-5.47.89-8.13l-24.39-24.4c-1.7 0-3.39.02-5.08.08z"/></symbol>
    <symbol id="paste" viewBox="0 0 1024 1024"><path d="M815.48 252.63h-45c-13.81 0-25-11.19-25-25s11.19-25 25-25h45c13.81 0 25 11.19 25 25s-11.19 25-25 25zM734 905.29h-90.88c-13.81 0-25-11.19-25-25s11.19-25 25-25H734c13.81 0 25 11.19 25 25s-11.2 25-25 25zm-181.77 0h-90.88c-13.81 0-25-11.19-25-25s11.19-25 25-25h90.88c13.81 0 25 11.19 25 25s-11.19 25-25 25zm-181.76 0h-79.95c-5.17 0-10.36-.47-15.42-1.41-13.58-2.51-22.55-15.55-20.04-29.13 2.51-13.58 15.55-22.54 29.13-20.04 2.07.38 4.19.58 6.32.58h79.95c13.81 0 25 11.19 25 25s-11.18 25-24.99 25zm454.39-.02c-13.48 0-24.59-10.73-24.98-24.3-.39-13.8 10.48-25.31 24.29-25.69 18.56-.52 33.49-15.47 33.99-34.02.38-13.8 11.84-24.7 25.67-24.31 13.8.38 24.69 11.87 24.31 25.67-1.23 45.07-37.49 81.38-82.56 82.65-.24-.01-.48 0-.72 0zm58.32-149.22c-13.81 0-25-11.19-25-25v-90.88c0-13.81 11.19-25 25-25s25 11.19 25 25v90.88c0 13.81-11.2 25-25 25zm0-181.76c-13.81 0-25-11.19-25-25v-90.88c0-13.81 11.19-25 25-25s25 11.19 25 25v90.88c0 13.81-11.2 25-25 25zm0-181.76c-13.81 0-25-11.19-25-25v-79.89c0-2.14-.2-4.28-.58-6.36-2.52-13.57 6.44-26.62 20.01-29.15 13.57-2.52 26.62 6.44 29.15 20.01.95 5.09 1.42 10.3 1.42 15.5v79.89c0 13.8-11.2 25-25 25zM230.52 837.6c-13.81 0-25-11.19-25-25v-45c0-13.81 11.19-25 25-25s25 11.19 25 25v45c0 13.8-11.19 25-25 25z" fill="#2C5CCB"/><path d="M710.48 114.94H177.82c-33 0-60 27-60 60V707.6c0 33 27 60 60 60h532.66c33 0 60-27 60-60V174.94c0-33-27-60-60-60zM460.17 602.53H262.2c-13.81 0-25-11.19-25-25s11.19-25 25-25h197.97c13.81 0 25 11.19 25 25s-11.2 25-25 25zm165.94-136.26H262.2c-13.81 0-25-11.19-25-25s11.19-25 25-25h363.91c13.81 0 25 11.19 25 25s-11.19 25-25 25zm0-136.27H262.2c-13.81 0-25-11.19-25-25s11.19-25 25-25h363.91c13.81 0 25 11.19 25 25s-11.19 25-25 25z" fill="#2C5CCB"/></symbol>
    <symbol id="paste" viewBox="0 0 1024 1024"><path d="M815.48 252.63h-45c-13.81 0-25-11.19-25-25s11.19-25 25-25h45c13.81 0 25 11.19 25 25s-11.19 25-25 25zM734 905.29h-90.88c-13.81 0-25-11.19-25-25s11.19-25 25-25H734c13.81 0 25 11.19 25 25s-11.2 25-25 25zm-181.77 0h-90.88c-13.81 0-25-11.19-25-25s11.19-25 25-25h90.88c13.81 0 25 11.19 25 25s-11.19 25-25 25zm-181.76 0h-79.95c-5.17 0-10.36-.47-15.42-1.41-13.58-2.51-22.55-15.55-20.04-29.13 2.51-13.58 15.55-22.54 29.13-20.04 2.07.38 4.19.58 6.32.58h79.95c13.81 0 25 11.19 25 25s-11.18 25-24.99 25zm454.39-.02c-13.48 0-24.59-10.73-24.98-24.3-.39-13.8 10.48-25.31 24.29-25.69 18.56-.52 33.49-15.47 33.99-34.02.38-13.8 11.84-24.7 25.67-24.31 13.8.38 24.69 11.87 24.31 25.67-1.23 45.07-37.49 81.38-82.56 82.65-.24-.01-.48 0-.72 0zm58.32-149.22c-13.81 0-25-11.19-25-25v-90.88c0-13.81 11.19-25 25-25s25 11.19 25 25v90.88c0 13.81-11.2 25-25 25zm0-181.76c-13.81 0-25-11.19-25-25v-90.88c0-13.81 11.19-25 25-25s25 11.19 25 25v90.88c0 13.81-11.2 25-25 25zm0-181.76c-13.81 0-25-11.19-25-25v-79.89c0-2.14-.2-4.28-.58-6.36-2.52-13.57 6.44-26.62 20.01-29.15 13.57-2.52 26.62 6.44 29.15 20.01.95 5.09 1.42 10.3 1.42 15.5v79.89c0 13.8-11.2 25-25 25zM230.52 837.6c-13.81 0-25-11.19-25-25v-45c0-13.81 11.19-25 25-25s25 11.19 25 25v45c0 13.8-11.19 25-25 25z" fill="#2C5CCB"/><path d="M710.48 114.94H177.82c-33 0-60 27-60 60V707.6c0 33 27 60 60 60h532.66c33 0 60-27 60-60V174.94c0-33-27-60-60-60zM460.17 602.53H262.2c-13.81 0-25-11.19-25-25s11.19-25 25-25h197.97c13.81 0 25 11.19 25 25s-11.2 25-25 25zm165.94-136.26H262.2c-13.81 0-25-11.19-25-25s11.19-25 25-25h363.91c13.81 0 25 11.19 25 25s-11.19 25-25 25zm0-136.27H262.2c-13.81 0-25-11.19-25-25s11.19-25 25-25h363.91c13.81 0 25 11.19 25 25s-11.19 25-25 25z" fill="#2C5CCB"/></symbol>
    <symbol id="cut" viewBox="0 0 1024 1024"><path d="M768.1 152.7L663.9 280 525.8 448.7 387.6 280 283.4 152.7c-23.4 14.7-39 40.5-39 70.2 0 20.2 7.5 38.5 19.5 52.9-.9-1.1-2.1-2-3-3.2l-6.5-7.9 211 257.7 60.3 73.7 60.3-73.7 202.5-247.3.4-.4c.1-.2.2-.3.3-.5l1-1.3c-.2.2-.4.4-.6.7.5-.7.9-1.4 1.4-2.1 1.1-1.6 2.2-3.2 3.2-4.8 1.7-2.7 3.1-5.4 4.5-8.3.8-1.7 1.7-3.4 2.4-5.2 1.3-3.2 2.2-6.5 3.1-9.9.4-1.6 1-3.2 1.3-4.8 1-5.1 1.6-10.3 1.6-15.7 0-29.6-15.6-55.4-39-70.1zM526.5 542.6c-17.3 0-31.4-14.1-31.4-31.4 0-17.3 14.1-31.4 31.4-31.4 17.3 0 31.4 14.1 31.4 31.4 0 17.4-14.1 31.4-31.4 31.4zm216.9-239c1.5-.3 2.7-1.1 4.2-1.5.1 0 .2-.1.4-.1-1.6.5-3 1.3-4.6 1.6zm17.7-6.4c1.2-.6 2.2-1.5 3.4-2.2l.6-.3c-1.4.8-2.6 1.8-4 2.5zm15.6-10.2c.8-.6 1.4-1.5 2.1-2.1.2-.2.5-.4.7-.6-.9.9-1.8 1.9-2.8 2.7zM334 513.3c-90.9 0-164.5 73.7-164.5 164.5 0 90.9 73.7 164.5 164.5 164.5s164.5-73.7 164.5-164.5c.1-90.8-73.6-164.5-164.5-164.5zm0 257.3c-51.2 0-92.8-41.5-92.8-92.8S282.8 585 334 585s92.8 41.5 92.8 92.8-41.5 92.8-92.8 92.8zm383.5-257.3C626.7 513.3 553 587 553 677.8c0 90.9 73.7 164.5 164.5 164.5S882 768.6 882 677.8c.1-90.8-73.6-164.5-164.5-164.5zm0 257.3c-51.2 0-92.8-41.5-92.8-92.8s41.5-92.8 92.8-92.8c51.2 0 92.8 41.5 92.8 92.8s-41.5 92.8-92.8 92.8z" fill="#3E88C8"/></symbol>
    <symbol id="copy" viewBox="0 0 1024 1024"><path d="M866.133 919.467H460.8c-29.867 0-53.333-23.467-53.333-53.334V247.467c0-29.867 23.466-53.334 53.333-53.334h405.333c29.867 0 53.334 23.467 53.334 53.334v618.666c0 29.867-23.467 53.334-53.334 53.334z" fill="#69C0FF"/><path d="M770.133 428.8H556.8c-12.8 0-21.333-8.533-21.333-21.333S544 386.133 556.8 386.133h213.333c12.8 0 21.334 8.534 21.334 21.334S780.8 428.8 770.133 428.8zm0 128H556.8c-12.8 0-21.333-8.533-21.333-21.333S544 514.133 556.8 514.133h213.333c12.8 0 21.334 8.534 21.334 21.334S780.8 556.8 770.133 556.8zm0 128H556.8c-12.8 0-21.333-8.533-21.333-21.333S544 642.133 556.8 642.133h213.333c12.8 0 21.334 8.534 21.334 21.334S780.8 684.8 770.133 684.8z" fill="#FFF"/><path d="M567.467 834.133H162.133c-29.866 0-53.333-23.466-53.333-53.333V162.133c0-29.866 23.467-53.333 53.333-53.333h405.334c29.866 0 53.333 23.467 53.333 53.333V780.8c0 29.867-23.467 53.333-53.333 53.333z" fill="#1890FF"/><path d="M471.467 343.467H258.133c-12.8 0-21.333-8.534-21.333-21.334s8.533-21.333 21.333-21.333h213.334c12.8 0 21.333 8.533 21.333 21.333s-10.667 21.334-21.333 21.334zm0 128H258.133c-12.8 0-21.333-8.534-21.333-21.334s8.533-21.333 21.333-21.333h213.334c12.8 0 21.333 8.533 21.333 21.333s-10.667 21.334-21.333 21.334zm0 128H258.133c-12.8 0-21.333-8.534-21.333-21.334s8.533-21.333 21.333-21.333h213.334c12.8 0 21.333 8.533 21.333 21.333s-10.667 21.334-21.333 21.334z" fill="#FFF"/></symbol>
    <symbol id="remove" viewBox="0 0 1024 1024"><path d="M800 280v624a8 8 0 0 1-8 8H232a8 8 0 0 1-8-8V280H120a8 8 0 0 1-8-8v-56a8 8 0 0 1 8-8h198v-64c0-17.673 14.327-32 32-32h324c17.673 0 32 14.327 32 32v64h198a8 8 0 0 1 8 8v56a8 8 0 0 1-8 8H800zm-72 0H296v560h432V280zM408 384h48a8 8 0 0 1 8 8v384a8 8 0 0 1-8 8h-48a8 8 0 0 1-8-8V392a8 8 0 0 1 8-8zm160 0h48a8 8 0 0 1 8 8v384a8 8 0 0 1-8 8h-48a8 8 0 0 1-8-8V392a8 8 0 0 1 8-8z"/></symbol>
    <symbol id="rename" viewBox="0 0 1024 1024"><path d="M938.803 983.04H81.92V40.96h568.32l287.437 323.994H590.848V122.88H163.84v778.24h693.043V482.611h81.92zm-266.24-699.597h82.842l-82.637-94.003z" fill="#3080E9"/><path d="M342.528 470.63h81.92v329.83h-81.92z" fill="#3080E9"/><path d="M195.789 395.162h375.5v81.92h-375.5zm273.92 323.89h81.203v81.92h-81.203zm119.398 0h81.203v81.92h-81.203zm119.603 0h81.306v81.92H708.71z" fill="#3080E9"/></symbol>
    <symbol id="winmax" viewBox="0 0 1024 1024"><path d="M128 128h768v16H128z"/><path d="M880 128h16v768h-16zM128 880h752v16H128z"/><path d="M128 144h16v752h-16z"/></symbol>
    <symbol id="winre" viewBox="0 0 1024 1024"><path d="M885.333 85.333h-576A53.393 53.393 0 0 0 256 138.667V256H138.667a53.393 53.393 0 0 0-53.334 53.333v576a53.393 53.393 0 0 0 53.334 53.334h576A53.393 53.393 0 0 0 768 885.333V768h117.333a53.393 53.393 0 0 0 53.334-53.333v-576a53.393 53.393 0 0 0-53.334-53.334zm-160 800A10.667 10.667 0 0 1 714.667 896h-576A10.667 10.667 0 0 1 128 885.333v-576a10.667 10.667 0 0 1 10.667-10.666h576a10.667 10.667 0 0 1 10.666 10.666zM896 714.667a10.667 10.667 0 0 1-10.667 10.666H768v-416A53.393 53.393 0 0 0 714.667 256h-416V138.667A10.667 10.667 0 0 1 309.333 128h576A10.667 10.667 0 0 1 896 138.667z" fill="#5C5C66"/></symbol>
    <symbol id="close" viewBox="0 0 1024 1024"><path d="M525.27 510.838L918.1 116.228c7.178-7.21 7.15-18.873-.06-26.05s-18.87-7.152-26.049.06l-392.714 394.49L106.563 90.237c-7.177-7.209-18.84-7.236-26.05-.06-7.208 7.178-7.235 18.84-.059 26.05l392.833 394.612L80.454 905.447c-7.176 7.21-7.15 18.872.06 26.05a18.363 18.363 0 0 0 12.995 5.364c4.727 0 9.455-1.809 13.054-5.424l392.715-394.492 392.715 394.492a18.365 18.365 0 0 0 13.055 5.424c4.7 0 9.402-1.787 12.995-5.365 7.209-7.177 7.236-18.84.06-26.05L525.268 510.839z"/></symbol>
    <symbol id="winsub" viewBox="0 0 1024 1024"><path d="M917.333 554.667H106.667a21.333 21.333 0 0 1 0-42.667h810.666a21.333 21.333 0 0 1 0 42.667z" fill="#5C5C66"/></symbol>
    <symbol id="pause" viewBox="0 0 1024 1024"><path d="M309.3 130.7h-70.9c-24.3 0-44 19.7-44 44v674.5c0 24.3 19.7 44 44 44h70.9c24.3 0 44-19.7 44-44V174.7c0-24.3-19.7-44-44-44zm476.3 0h-70.9c-24.3 0-44 19.7-44 44v674.5c0 24.3 19.7 44 44 44h70.9c24.3 0 44-19.7 44-44V174.7c0-24.3-19.7-44-44-44z"/></symbol>
    <symbol id="start" viewBox="0 0 1024 1024"><path d="M226.592 896C167.616 896 128 850.48 128 782.736V241.264C128 173.52 167.616 128 226.592 128c20.176 0 41.136 5.536 62.288 16.464l542.864 280.432C887.648 453.792 896 491.872 896 512s-8.352 58.208-64.272 87.088L288.864 879.536C267.712 890.464 246.768 896 226.592 896zm0-704.304c-31.008 0-34.368 34.656-34.368 49.568v541.472c0 14.896 3.344 49.568 34.368 49.568 9.6 0 20.88-3.2 32.608-9.248l542.864-280.432c21.904-11.328 29.712-23.232 29.712-30.608s-7.808-19.28-29.712-30.592L259.2 200.96c-11.728-6.048-23.008-9.264-32.608-9.264z"/></symbol>
    <symbol id="restart" viewBox="0 0 1024 1024"><path d="M467.776 786.24c-6.912-6.976-20.992-2.304-20.992 9.344V999.68c0 9.344 11.648 16.384 20.992 9.344l102.464-94.528a22.592 22.592 0 0 0 0-32.64L467.776 786.24zm44.096 99.52A372.416 372.416 0 0 1 138.304 512c0-145.792 83.392-270.336 203.776-332.032 0 0 14.656-8.384 9.344-28.928-5.312-20.48-21.248-13.76-21.248-13.76A415.936 415.936 0 0 0 95.616 512a414.08 414.08 0 0 0 455.296 414.08l-11.648-41.664c-9.088.64-18.176 1.344-27.392 1.344zm44.352-648c6.912 6.976 20.992 2.304 20.992-9.344V24.32c0-9.344-11.648-16.384-20.992-9.344L453.76 109.504a22.592 22.592 0 0 0 0 32.64l102.464 95.616zm-44.096-99.456a372.416 372.416 0 0 1 373.568 373.76c0 145.792-83.392 270.336-203.776 332.032 0 0-14.656 8.384-9.344 28.928 5.312 20.48 21.248 13.76 21.248 13.76a415.936 415.936 0 0 0 234.56-374.72 414.08 414.08 0 0 0-455.296-414.08l11.648 41.664c9.088-.704 18.176-1.344 27.392-1.344z"/></symbol>
    <symbol id="home" viewBox="0 0 576 512"><path fill="currentColor" d="M575.8 255.5c0 18-15 32.1-32 32.1h-32l.7 160.1c0 2.8-.2 5.4-.5 8.1V472c0 22.1-17.9 40-40 40h-16c-1.1 0-2.2-.9-3.3-.1-1.4-.8-2.8.1-4.2.1H392c-22.1 0-40-17.9-40-40v-88c0-17.7-14.3-32-32-32h-64c-17.7 0-32 14.3-32 32v88c0 22.1-17.9 40-40 40h-55.9c-1.5 0-3-.1-4.5-.2-1.2.1-2.4.2-3.6.2h-16c-22.09 0-40-17.9-40-40V360c0-.9.03-1.9.09-2.8v-69.6H32.05C14.02 287.6 0 273.5 0 255.5c0-9 3.004-17 10.01-24L266.4 8.016c7-7.014 15-8.016 22-8.016s15 2.004 21.1 7.014L564.8 231.5c8 7 12.1 15 11 24z"/></symbol>
    <symbol id="star" viewBox="0 0 1024 1024"><path d="M557.568 807.68l211.2 77.44-9.216-248.32a64 64 0 0 1 13.632-41.856l153.408-195.456-216.384-61.44a128 128 0 0 1-71.296-51.84L513.472 99.456 388.16 286.208a128 128 0 0 1-71.296 51.84l-216.32 61.44 138.88 177.024a128 128 0 0 1 27.2 83.776l-8.32 224.768 211.2-77.44a128 128 0 0 1 88.064 0zM280.32 945.152a64 64 0 0 1-85.952-62.464l8.32-224.832A64 64 0 0 0 189.12 616L50.176 439.04a64 64 0 0 1 32.832-101.12l216.32-61.44a64 64 0 0 0 35.712-25.92L460.416 63.744a64 64 0 0 1 106.24 0l125.44 186.816a64 64 0 0 0 35.584 25.856l216.384 61.568a64 64 0 0 1 32.832 101.056L823.552 634.432l9.216 248.32a64 64 0 0 1-86.016 62.4l-211.2-77.44a64 64 0 0 0-44.032 0l-211.2 77.44z" fill="#5A5A5A"/></symbol>
    <symbol id="left" viewBox="0 0 448 512"><path fill="currentColor" d="M447.1 256c0 17.7-13.4 32-31.1 32H109.3l105.4 105.4c12.5 12.5 12.5 32.75 0 45.25-6.3 6.25-14.5 9.35-22.7 9.35s-16.38-3.125-22.62-9.375l-160-160c-12.5-12.5-12.5-32.75 0-45.25l160-160c12.5-12.5 32.75-12.5 45.25 0s12.5 32.75 0 45.25L109.3 224H416c17.7 0 31.1 14.3 31.1 32z"/></symbol>
    <symbol id="right" viewBox="0 0 448 512"><path fill="currentColor" d="M438.6 278.6l-160 160c-6.2 6.3-14.4 9.4-22.6 9.4s-16.38-3.125-22.62-9.375c-12.5-12.5-12.5-32.75 0-45.25L338.8 288H32C14.33 288 .002 273.7.002 256S14.33 224 32 224h306.8L233.4 118.6c-12.5-12.5-12.5-32.75 0-45.25s32.75-12.5 45.25 0l160 160c12.45 12.55 12.45 32.75-.05 45.25z"/></symbol>
    <symbol id="top" viewBox="0 0 384 512"><path fill="currentColor" d="M374.6 246.6c-6.2 6.3-14.4 9.4-22.6 9.4s-16.38-3.125-22.62-9.375L224 141.3V448c0 17.69-14.33 31.1-31.1 31.1S160 465.7 160 448V141.3L54.63 246.6c-12.5 12.5-32.75 12.5-45.25 0s-12.5-32.75 0-45.25l160-160c12.5-12.5 32.75-12.5 45.25 0l160 160c12.47 12.55 12.47 32.75-.03 45.25z"/></symbol>
    <symbol id="arrow-b" viewBox="0 0 448 512"><path fill="currentColor" d="M224 416c-8.188 0-16.38-3.125-22.62-9.375l-192-192c-12.5-12.5-12.5-32.75 0-45.25s32.75-12.5 45.25 0L224 338.8l169.4-169.4c12.5-12.5 32.75-12.5 45.25 0s12.5 32.75 0 45.25l-192 192C240.4 412.9 232.2 416 224 416z"/></symbol>
    <symbol id="kbzw" viewBox="0 0 512 512"><path fill="currentColor" d="M512 256c0 141.4-114.6 256-256 256S0 397.4 0 256 114.6 0 256 0s256 114.6 256 256z"/></symbol>
    <symbol id="upload" viewBox="0 0 1024 1024"><path d="M873.412 481.882a60.235 60.235 0 0 1 120.47 0V765.35c0 142.757-114.929 258.65-257.024 258.65H287.142c-142.095 0-257.024-115.893-257.024-258.65V481.882a60.235 60.235 0 1 1 120.47 0V765.35c0 76.438 61.26 138.18 136.554 138.18h449.716c75.294 0 136.554-61.742 136.554-138.18V481.882zM512 60.235q60.235 0 60.235 60.236v602.353q0 60.235-60.235 60.235t-60.235-60.235V120.47q0-60.236 60.235-60.236zm-3.012 110.11L338.522 340.751a60.235 60.235 0 0 1-85.172-85.173L466.402 42.586a60.235 60.235 0 0 1 85.173 0l212.931 212.992a60.235 60.235 0 1 1-85.172 85.173L508.988 170.345z"/></symbol>
    <symbol id="edit" viewBox="0 0 1024 1024"><path d="M499.2 281.6l243.2 243.2-328.533 328.533h-243.2v-243.2L499.2 281.6zm0 123.733L256 648.533V768h119.467l243.2-243.2L499.2 405.333zm115.2-234.666l238.933 243.2L780.8 486.4 537.6 243.2l76.8-72.533z"/></symbol>
    <symbol id="add" viewBox="0 0 1024 1024"><path d="M801.171 483.589H544V226.418c0-17.673-14.327-32-32-32s-32 14.327-32 32v257.171H222.83c-17.673 0-32 14.327-32 32s14.327 32 32 32H480v257.17c0 17.673 14.327 32 32 32s32-14.327 32-32v-257.17h257.171c17.673 0 32-14.327 32-32s-14.327-32-32-32z"/></symbol>
    <symbol id="switch-b" viewBox="0 0 1024 1024"><path d="M512 42.667C251.733 42.667 42.667 251.733 42.667 512S251.733 981.333 512 981.333 981.333 772.267 981.333 512 772.267 42.667 512 42.667zm0 874.666c-221.867 0-405.333-179.2-405.333-405.333 0-221.867 179.2-405.333 405.333-405.333S917.333 285.867 917.333 512c0 221.867-183.466 405.333-405.333 405.333zm0-366.933L345.6 384l-46.933 42.667L512 640l213.333-213.333L678.4 384z"/></symbol>
    <symbol id="switch-t" viewBox="0 0 1024 1024"><path d="M981.333 512c0-260.267-209.066-469.333-469.333-469.333S42.667 251.733 42.667 512 251.733 981.333 512 981.333 981.333 772.267 981.333 512zm-64 0c0 221.867-179.2 405.333-405.333 405.333S106.667 733.867 106.667 512 285.867 106.667 512 106.667 917.333 290.133 917.333 512zM512 473.6L345.6 640l-46.933-42.667L512 384l213.333 213.333L678.4 640z"/></symbol>
    <symbol id="house" viewBox="0 0 576 512"><path fill="currentColor" d="M575.8 255.5c0 18-15 32.1-32 32.1h-32l.7 160.1c0 2.8-.2 5.4-.5 8.1V472c0 22.1-17.9 40-40 40h-16c-1.1 0-2.2-.9-3.3-.1-1.4-.8-2.8.1-4.2.1H392c-22.1 0-40-17.9-40-40v-88c0-17.7-14.3-32-32-32h-64c-17.7 0-32 14.3-32 32v88c0 22.1-17.9 40-40 40h-55.9c-1.5 0-3-.1-4.5-.2-1.2.1-2.4.2-3.6.2h-16c-22.09 0-40-17.9-40-40V360c0-.9.03-1.9.09-2.8v-69.6H32.05C14.02 287.6 0 273.5 0 255.5c0-9 3.004-17 10.01-24L266.4 8.016c7-7.014 15-8.016 22-8.016s15 2.004 21.1 7.014L564.8 231.5c8 7 12.1 15 11 24z"/></symbol>
    <symbol id="store-app" viewBox="0 0 512 512"><path fill="currentColor" d="M448 32c35.3 0 64 28.65 64 64v320c0 35.3-28.7 64-64 64H64c-35.35 0-64-28.7-64-64V96c0-35.35 28.65-64 64-64h384zm0 64H288v128h160V96zm0 192H288v128h160V288zm-224-64V96H64v128h160zM64 416h160V288H64v128z"/></symbol>
    <symbol id="store-game" viewBox="0 0 640 512"><path fill="currentColor" d="M448 64H192C85.96 64 0 149.1 0 256s85.96 192 192 192h256c106 0 192-85.96 192-192S554 64 448 64zM247.1 280h-32v32c0 13.2-10.78 24-23.98 24-13.2 0-24.02-10.8-24.02-24v-32l-31.1-.9c-13.2 0-24.9-9.9-24.9-23.1 0-13.2 10.85-24.01 24.05-24.01l31.95.01v-32c0-13.2 10.82-24 24.02-24s23.98 10.8 23.98 24v32h32c13.2 0 24.02 10.8 24.02 24-.02 13.2-9.92 24-24.02 24zm184 64c-22.12 0-39.1-17.87-39.1-39.1s17.87-40 39.1-40 39.1 17.88 39.1 40-16.1 39.1-39.1 39.1zm64-96c-22.12 0-39.1-17.87-39.1-39.1s17.87-40 39.1-40c22.12 0 39.1 17.88 39.1 40S518.1 248 495.1 248z"/></symbol>
    <symbol id="store-local" viewBox="0 0 1024 1024"><path fill="currentColor" d="M496 256.1l-64-112H128c-57-3-64 32-64 48v688h896v-624H496zm-384-64h288l37.3 64H112v-64zm800 640H112v-528h800v528z"/></symbol>
    <symbol id="download" viewBox="0 0 512 512"><path fill="currentColor" d="M480 352H346.5l-45.25 45.25C289.2 409.3 273.1 416 256 416s-33.16-6.656-45.25-18.75L165.5 352H32c-17.67 0-32 14.33-32 32v96c0 17.67 14.33 32 32 32h448c17.67 0 32-14.33 32-32v-96c0-17.7-14.3-32-32-32zm-48 104c-13.2 0-24-10.8-24-24s10.8-24 24-24 24 10.8 24 24-10.8 24-24 24zm-198.6-81.4c6.2 6.3 14.4 9.4 22.6 9.4s16.38-3.125 22.62-9.375l128-128c12.49-12.5 12.49-32.75 0-45.25-12.5-12.5-32.76-12.5-45.25 0L288 274.8V32c0-17.67-14.33-32-32-32-17.7 0-32 14.33-32 32v242.8l-73.4-73.4c-12.49-12.5-32.75-12.5-45.25 0-12.49 12.5-12.49 32.75 0 45.25L233.4 374.6z"/></symbol>
    <symbol id="store-star" viewBox="0 0 576 512"><path fill="currentColor" d="M381.2 150.3l143.7 21.2c11.9 1.7 21.9 10.1 25.7 21.6 3.8 11.6.7 24.2-7.9 32.8L438.5 328.1l24.6 146.6c2 12-2.9 24.2-12.9 31.3-9.9 7.1-23 8-33.7 2.3l-128.4-68.5-128.3 68.5c-10.8 5.7-23.9 4.8-33.8-2.3-9.9-7.1-14.9-19.3-12.8-31.3l24.6-146.6L33.58 225.9c-8.61-8.6-11.67-21.2-7.89-32.8 3.77-11.5 13.74-19.9 25.73-21.6L195 150.3l64.4-132.33C264.7 6.954 275.9-.04 288.1-.04c12.3 0 23.5 6.994 28.8 18.01l64.3 132.33z"/></symbol>
</svg>